/* XPM */
static char *pixil_frame_0[] = {
/* columns rows colors chars-per-pixel */
"96 96 67 1 ",
"  c #000000",
". c #040300",
"X c #070600",
"o c #0C0B00",
"O c #0E0D00",
"+ c #151400",
"@ c #1C1A00",
"# c #1E1C00",
"$ c #212000",
"% c #242200",
"& c #353300",
"* c #373400",
"= c #393600",
"- c #3C3900",
"; c #403D00",
": c #4D4900",
"> c #504C00",
", c #544F00",
"< c #555000",
"1 c #5A5600",
"2 c #5C5700",
"3 c #5C5800",
"4 c #605B00",
"5 c #635E00",
"6 c #676100",
"7 c #6D6700",
"8 c #6E6900",
"9 c #736D00",
"0 c #746E00",
"q c #827B00",
"w c #878000",
"e c #8B8400",
"r c #8C8500",
"t c #928A00",
"y c #968F00",
"u c #978F00",
"i c #989000",
"p c #9B9400",
"a c #9C9400",
"s c #A39A00",
"d c #A59D00",
"f c #A89F00",
"g c #A9A100",
"h c #AFA600",
"j c #BFB500",
"k c #C2B800",
"l c #C4BA00",
"z c #C7BC00",
"x c #CABF00",
"c c #CCC200",
"v c #DBCF00",
"b c #DBD000",
"n c #DED200",
"m c #DFD300",
"M c #E1D600",
"N c #E3D800",
"B c #E4D900",
"V c #EADE00",
"C c #F0E400",
"Z c #F1E500",
"A c #F7EB00",
"S c #F9EC00",
"D c #FCEF00",
"F c #FEF100",
"G c #FFF600",
"H c #FFFA00",
"J c #FFFF00",
/* pixels */
"                                                                                                ",
"                                                                                                ",
"                                      Xo+#$%%$$$$$$%%$#+oX                                      ",
"                                      X@*:133111111331:*@X                                      ",
"                                      O&4wassaaaaaassaw4&O                                      ",
"                                      #>rjvNMnnnnnnMNvjr>#                                      ",
"                                  XXO#;0hMFHGFFFFFFGHFMh0;#OX.                                  ",
"                                  o#&>0acZHJJHHHHHHJJHZca0>&#o                                  ",
"                                  +=5rhcBSHJHHHHHHHHJHSBchr5=+                                  ",
"                                  #>ejMZSDFGGGGGFFFGGFFSZMje>#                                  ",
"                                  $2sbFHHFFFFFFFFFFFFFFHHFbs2$                                  ",
"                                  #3dNHJJGFFFFFFFFFFFFGJJHNd3#                                  ",
"                                  @1sMGJHGFFFFFFFFFFFFGHJGMs1@                                  ",
"                                  %3snFHHFFFFFFFFFFFFFFHHFns3%                                  ",
"                              XXO#;0hMFHGFFFFFFFFFFFFFFHHFMh0;#OX.                              ",
"                              o#&>9azVFHGFFFFFFFFFFFFFFGGFVza9>&#o                              ",
"                              +=5rhxMZFGGFFFFFFFFFFFFFFGGFZMxhr5=+                              ",
"                              #>ejMZSDFFFFFFFFFFFFFFFFFFGFDSZMje>#                              ",
"                              $2sbFHHFFFFFFFFFFFFFFFFFFFFFFHHFbs2$                              ",
"                              #3dMHJJGFFFFFFFFFFFFFFFFFFFFGJJHNd3#                              ",
"                              @1sMGJHGFFFFFFFFFFFFFFFFFFFFGHJGMs1@                              ",
"                              %3snFHHFFFFFFFFFFFFFFFFFFFFFFHHFns3%                              ",
"                          XXO#;0hMFHHFFFFFGGFFFFGGGGFFFFFFFGHFMh0;#OXX                          ",
"                          o#&>9azVFGGFFGGHHHHHHHHHHHHHHGGFFGGFVza9>&#o                          ",
"                          +=5rhxMZFGGFFGHHHHHHHHHHHHHHHHGGFGGFZMxhr5=+                          ",
"                          #>ejMZSSFFFFFFFFFFFFFFFFFFFFFFFFFFFFSSZMje>#                          ",
"                          $2sbFHHFFFGFDZVMnvvbnnnnbvvnMVZDFGGFFHHFbs2$                          ",
"                          #3dBHJJGFGHGAnkgayiiiiiiiiyigknAGHGGGJJHBd3#                          ",
"                          @1sMGJHGGHJHZzy7<:>,<<<<,>:<7yzZHJHGGHJGMs1@                          ",
"                          %3snFHHFFGHFMh0;%@#$%%%%$#@%;0hMFHGFFHHFns3%                          ",
"                      .XO#;0hMFHHFSAZMli6-%##$%%%%$##%-6ilMZASFHHFMh0;#OX.                      ",
"                      o#&>9azVFHHFZnzhiq83<>><<<<<<>><38qihzmZFHHFVza9>&#o                      ",
"                      +=5rhxMZFHHFVky968qtiaaiiiiiiaaitq860ykVFHHFZMxhr5=+                      ",
"                      #>ejMZSDFHHFMg7;-3tkvMMnnnnbnMMvkt3-;7gMFHHFDAZMje>#                      ",
"                      $3sbFHHFFHHFna<%%<ivFHGFFFFFFGHFvi<%%<pnFHHFFHHFns3$                      ",
"                      %5fBHJJGFHHFvy:@#>aMHJJJHHHHJJJHMa>#@:yvFHHFGJJHBf5%                      ",
"                      $4dMGJHGFHHFbi>##>aMGJJHHHHHHJJGMa>##>ivFHHFGHJGMd4$                      ",
"                      $3snFHHFFHHFni,$$<inFJHGFFFFGHJFni<$$,ibFHHFFHHFns3$                      ",
"                      $3snFHHFFHHFni<%%<inFHHFFFFFFHHFni<%%<ibFHHFFHHFns3$                      ",
"                      $3snFHHFFHHFni<%%<inFHHFFFFFFHHFni<%%<ibFHHFFHHFns3$                      ",
"                      $3snFHHFFHHFni<%%<ibFHHFFFFFFHHFni<%%<inFHHFFHHFns3$                      ",
"                      $3snFHHFFHHFbi<%%<ibFHHGFFFFFHHFni<%%<inFHHFFHHFns3$                      ",
"                      $3snFHHFFHHFni<%%<inFHHGFFFFFHHFni<%%<inFHHFFHHFns3$                      ",
"                      $3snFHHFFHHFni<%%<inFHHFFFFFFHHFni<%%<inFHHFFHHFns3$                      ",
"                      $3snFHHFFHHFni<%%<inFHHFFFFFFHHFni<%%<ibFHHFFHHFns3$                      ",
"                      $3snFHHFFHHFni<%%<inFHHFFFFFGHHFni<%%<ibFHHFFHHFns3$                      ",
"                      $3snFHHFGHHFni<%%<inFHHFFFFFGHHFbi<%%<pnFHHFFHHFns3$                      ",
"                      $3snFHHFFHHFni<%%<inFHHFFFFFFHHFbi<%%<pnFHHFFHHFns3$                      ",
"                      $3snFHHFFHHFni<%%<inFHHFFFFFFHHFni<%%<ibFHHFFHHFns3$                      ",
"                      $3snFHHFFHHFni<%%<inFHHFFFFFFHHFbi<$%<inFHHFFHHFns3$                      ",
"                      $3snFHHFFHHFbi<%%<inFHHGFFFFFHHFni<%%<inFHHFFHHFns3$                      ",
"                      $3snFHHFFHHFbi<%%<inFHHGFFFFGHHFni<%%<inFHHFFHHFns3$                      ",
"                      $3snFHHFFHHFni<%%<inFHHGFFFFGHHFni<%%<inFHHFFHHFns3$                      ",
"                      $3snFHHFFHHFbi<%%<inFHHFFFFFGHHFni<%%<ibFHHFFHHFns3$                      ",
"                      $3snFHHFFHHFni<%$<ibFHHFFFFFFHHFni<%%<pnFHHFFHHFns3$                      ",
"                      $3snFHHFFHHFni<%%<inFHHFFFFFFHHFni<%%<inFHHFFHHFns3$                      ",
"                      $3snFHHFFHHFni<%%<inFHHFFFFFFHHFni<%%<inFHHFFHHFns3$                      ",
"                      $3snFHHFFHHFni<%%<inFHHFFFFFFHHFni<%%<inFHHFFHHFns3$                      ",
"                      $3snFHHFFHHFbi,$$<inFJHGFFFFGHJFnp<$$,ibFHHFFHHFns3$                      ",
"                      $4dMGJHGFHHFbi>##>aMGJJHHHHHHJJGMa>##>ivFHHFGHJGMd4$                      ",
"                      $5fBHJJGFHHFvy:@#>aMHJJJHHHHJJJHMa>#@:yvFHHFGJJHBf5%                      ",
"                      $3sbDHHFFHHFna<%%<ivFHGFFFFFFGHFvi<%%<abFHHFFHHFns3$                      ",
"                      #>ejMZSSFHHFMg7;-3tkvMMnnnnnnMMbkt3-;7gMFHHFSAZMje>#                      ",
"                      +=5rhxMZFHHFVky068qtiaaiiiiiiaaitq869ykVFHHFZMxhr5=+                      ",
"                      o#&>9azVFHHFZmzhiq83<>><<<<<<>><38qihznZFHHFVza9>&#o                      ",
"                      .XO#;0hMFHHFSAZMli6-%##$%%%%$##%-6ilMZASFHHFMh0;#OX.                      ",
"                          %3snFHHFFGHFMh0;%@#$%%%%$#@%;0hMFHGFFHHFns3%                          ",
"                          @1sMGJHGGHJHZzy7<:>,<<<<,>:<7yzZHJHGGHJGMs1@                          ",
"                          #3dBHJJGGGHGAnkgiyiiiiiiiiyagknAGHGFGJJHBd3#                          ",
"                          $2sbFHHFFGGFDZVMnvvbnnnnbvvnMVZDFGFFFHHFbs3$                          ",
"                          #>ejMZSSFFFFFFFFFFFFFFFFFFFFFFFFFFFFSSZMje>#                          ",
"                          +=5rhxMZFGGFGGHHHHHHHHHHHHHHHHGFFGGFZMxhr5=+                          ",
"                          o#&>9azVFGGFFGGHHHHHHHHHHHHHHGGFFGGFVza9>&#o                          ",
"                          XXO#;0hMFHGFFFFFFFGGGGFFFFGGFFFFFHHFMh0;#OX.                          ",
"                              %3snFHHFFFFFFFFFFFFFFFFFFFFFFHHFns3%                              ",
"                              @1sMGJHGFFFFFFFFFFFFFFFFFFFFGHJGMs1@                              ",
"                              #3dNHJJGFFFFFFFFFFFFFFFFFFFFGJJHMd3#                              ",
"                              $2sbFHHFFFFFFFFFFFFFFFFFFFFFFHHFbs3$                              ",
"                              #>ejMZSDFGFFFFFFFFFFFFFFFFFFDSZMje>#                              ",
"                              +=5rhxMZFGGFFFFFFFFFFFFFFGGFZMxhr5=+                              ",
"                              o#&>9azVFGGFFFFFFFFFFFFFFGHFVza9>&#o                              ",
"                              .XO#;0hMFHHFFFFFFFFFFFFFFGHFMh0;#OX.                              ",
"                                  %3snFHHFFFFFFFFFFFFFFHHFns3%                                  ",
"                                  @1sMGJHGFFFFFFFFFFFFGHJGMs1@                                  ",
"                                  #3dNHJJGFFFFFFFFFFFFGJJHNd3#                                  ",
"                                  $2sbFHHFFFFFFFFFFFFFFHHFbs2$                                  ",
"                                  #>ejMZSFFGGFFFGGGGGFDSZMje>#                                  ",
"                                  +=5rhcBSHJHHHHHHHHJHSBchr5=+                                  ",
"                                  o#&>0acZHJJHHHHHHJJHZca0>&#o                                  ",
"                                  .XO#;0hMFHGFFFFFFGHFMh0;#OXX                                  ",
"                                      #>rjvNMnnnnnnMNvjr>#                                      ",
"                                      O&4wassaaaaaassaw4&O                                      ",
"                                      X@*:133111111331:*@X                                      ",
"                                      Xo+#$%%$$$$$$%%$#+oX                                      ",
"                                                                                                ",
"                                                                                                "
};
