/* XPM */
static char *pixil_frame_0_1_[] = {
/* columns rows colors chars-per-pixel */
"96 96 63 1 ",
"  c #000201",
". c #010402",
"X c #020804",
"o c #020A04",
"O c #030F06",
"+ c #031107",
"@ c #041308",
"# c #04170A",
"$ c #05190B",
"% c #07230F",
"& c #072610",
"* c #082711",
"= c #082A12",
"- c #082C13",
"; c #092E14",
": c #0A3215",
"> c #0A3617",
", c #0B3718",
"< c #0B3B19",
"1 c #0B3C1A",
"2 c #0C3E1B",
"3 c #0C401B",
"4 c #0D431D",
"5 c #0D441D",
"6 c #0E481F",
"7 c #0E4B20",
"8 c #0F4C21",
"9 c #105324",
"0 c #105525",
"q c #115726",
"w c #125C27",
"e c #125C28",
"r c #126029",
"t c #13652B",
"y c #14662C",
"u c #14692D",
"i c #156D2F",
"p c #156F30",
"a c #167030",
"s c #167532",
"d c #177833",
"f c #177A34",
"g c #187B35",
"h c #187F37",
"j c #198037",
"k c #198338",
"l c #198439",
"z c #1B8A3B",
"x c #1B8B3C",
"c c #1B8D3C",
"v c #1C933F",
"b c #1D9741",
"n c #1E9B42",
"m c #1E9D43",
"M c #1E9D44",
"N c #1FA246",
"B c #20A647",
"V c #20A948",
"C c #21AE4B",
"Z c #22B04C",
"A c #22B14C",
"S c #23B44D",
"D c #24B950",
/* pixels */
"AAASSDDDDDDDDDDDDDDDDDDDDDDDDDDDDDDDDDDDDDDDDDDDDDDDDDDDDDDDDDDDDDDDDDDDDDDDDDDDDDDDDDDDDDDSSAAA",
"AAAAAAAAAAAAAAAAAAAAAAAAAAAAAAAAAAAAAAAAAAAAAAAAAAAAAAAAAAAAAAAAAAAAAAAAAAAAAAAAAAAAAAAAAAAAAAAA",
"AACVNmnnnnnnnnnnnnnnnnnnnnnnnnnnnnnnnnnnnnnnnnnnnnnnnnnnnnnnnnnnnnnnnnnnnnnnnnnnnnnnnnnnnnmNVCAA",
"SAVnzgaaaaaaaaaaaaaaaaaaaaaaaaaaaaaaaaaaaaaaaaaaaaaaaaaaaaaaaaaaaaaaaaaaaaaaaaaaaaaaaaaaaagznVAS",
"SANzi95344445555444444445555445544445555444444445555445544445555444444445555445544445544359izNAS",
"DAmg9;$@##$$$$$$$$$$$$$$$$$$$$$$$$$$$$$$$$$$$$$$$$$$$$$$$$$$$$$$$$$$$$$$$$$$$$$$$$$$$$$#@$;9gmAD",
"DAna5$                                                                                    $5anAD",
"DAna3@                                                                                    @3anAD",
"DAna4#                                                                                    #4anAD",
"DAna4$                                                                                    #4anAD",
"DAna4$                                                                                    #4anAD",
"DAna4$                                                                                    #4anAD",
"DAna5$                                                                                    @2anAD",
"DAna4$                                                                                    $5anAD",
"DAna4$. o##$$$$$$$$$$$#Oo  oO##+o          oO##Oo      o+##Oo  oO#$$$$$$$$$$$$$$$$$$$$$#@$-9gmAD",
"DAna4$o+%,455555555565<=#oo#=<<-$o        o$=,,=$o    o$=,,=#oo#=<5655555554444445555554450ixNAS",
"DAna3$+%4rassssssssfgsy6=++=6rr7=O        +-7rr7=O    +-7rr6=++*6ysgfsssssssaaaasssssssssshcmVAS",
"DAni2$#:elnMmnnnnnnmMbke:##,rkly<#        #2ylly<#    #2ykkr,##:eknMmnnnnnnnnnnnnnnnnnnbbnmNVCAA",
"DAni2$$<ibCCBmnbbnnmMbkw:#$3abbs5$        $5sbbs5$    $5sbba3$#:wkbmmnnnbnnNVCCVNnnbbnnbbnmNVCAA",
"DAni2$$2aMCBvjsssssfgsy5&+$5smMg5$        $6gMMg6$    $5fmms5$+&5tsffssssshcNCCNvhsssssssshcmVAS",
"DAni2$$2amBva054455565<*@o$5dmmf5$        $5fmmf5$    $5fmmd5$o@&<555554450avBBva0544554450ixNAS",
"DAni2$$2anmj0;$@##$$$$#o .$5snns5$        $5snns5$    $5snns5$. o#$$$$##@$;0hmmh0;$@#$##@$;9gmAD",
"DAni2$$2anns5$            $5snns5$        $5snns5$    $5snns5$            $5snns5$        $5anAD",
"DAni2$$3abbs4@            $6fmmd5#        #5dmmf5$    $5snns5$            @4sbbs4@        @3anAD",
"DAni2$$3anns4#            $6gMmf5#        #5fmMg5$    $5snns5$            #4sbbs4#        #4anAD",
"DAni2$$3anns5$            $5sbns5$        $5sbns5$    $5snns5$            $5snns5$        $4anAD",
"DAni2$$2abns5$            #<yllp8=#o.  .o#=8plly<#    $5snns5$            $5snns5$        $4anCD",
"DAni2$$2abns5$            O=6rut05<&#oo#&<50tur6=O    $5snns5$            $5snns5$        $4anCD",
"DAni2$$2abns5$            o#&<50tur5&OO&5rut05<&#o    $5snns5$            $5snns5$        $5anAD",
"DAni2$$2abns5$             .o#=8alkr>##>rkla8=#o.     $5snns5$            $5snns5$        $5anAD",
"DAni2$$2abns5$                $5snba2$$2abbs5$        $5snns5$            $5snns5$        $5anAD",
"DAni2$$2abns5$                #4fmms4$$4smmd4#        $5snns5$            $5snns5$        $5anAD",
"DAni2$$2anns5$                #5fmns4$$4snmd5#        $5snns5$            $5snns5$        $5anAD",
"DAni2$$2abns5$                $5snna3$$2anns5$        $5snns5$            $5snns5$        $5anAD",
"DAni2$$2abns5$                $5snna2$$2anns5$        $5snns5$            $5snns5$        $4anAD",
"DAni2$$2abns5$                $5fmna2##2anmf6$        $5snns5$            $5snns5$        $4anAD",
"DAni2$$3abns5$                $6gMms2##2amMg6$        $5snns5$            $5snns5$        $5anAD",
"DAni2$$3abns5$                $5snba3$$3abbs5$        $5snns5$            $5snns5$        $5anAD",
"DAni2$$2abns5$                #<ylli5==5ilkt<#        $5snns5$            $5snns5$        $5anAD",
"DAni2$$2anns4#                O=6rur9669rur6=O        $5snns5$            $5snns5$        $5anAD",
"DAni2$$2abbs4@                o#=<50ruur05<=#o        $5snns5$            $5snns5$        $4anAD",
"DAni2$$2abns5$                 .o#=7pllp8=#o.         $5snns5$            $5snns5$        $4anAD",
"DAni2$$2abnh0;$@##$$$$#+o         $5sbbs5$            $5snns5$            $5snns5$        $4anAD",
"DAni2$$2pbNva0544555551-$o        #5fmmf5#            $5snns5$            $5snns5$        $4anAD",
"DAni2$$2inVNvhsssssffsy7=O        #5snnf5#            $5snns5$            $5snns5$        $4anAD",
"DAni2$$<inCCBmnbnnnmmblr,#        $5snns5$            $5snns5$            $5snns5$        $4anAD",
"DAni2$$<inCCBmnbbnnmMnlr,#        $5snns5$            $5snns5$            $5snns5$        $4anAD",
"DAni2$$2inVNvhsssssfgsy7=O        #5dnnd5#            $5snns5$            $5snns5$        $4anAD",
"DAni2$$2anNva0544555552-$o        #5fmmf5#            $5snns5$            $5snns5$        $5anAD",
"DAni2$$2annh0;$@##$$$$#+o         $5snns5$            $5snns5$            $5snns5$        $5anAD",
"DAni2$$2anns5$                 .o#=7pzlp7=#o.         $5snns5$            $5snns5$        $5anAD",
"DAni2$$2anbs4@                o#=<50ruur05<&#o        $5snns5$            $5snns5$        $5anAD",
"DAni2$$2abbs4#                O=6rur9669rur6=O        $5snns5$            $5snns5$        $4anAD",
"DAni2$$2abns5$                #<yllu5==5ully<#        $5snns5$            $5snns5$        $4anAD",
"DAni2$$2abns5$                $5sbba3$$3abbs5$        $5snns5$            $5snns5$        $4anAD",
"DAni2$$2abns5$                $5gMma2##2smMg6$        $5snns5$            $5snns5$        $4anAD",
"DAni2$$2abns5$                $5fmna2##2anmf5$        $5snns5$            $5snns5$        $5anAD",
"DAni2$$2abns5$                $5snna2$$2anns5$        $5snns5$            $5snns5$        $5anAD",
"DAni2$$2abns5$                $5snna3$$3anns5$        $5snns5$            $5snns5$        $4anAD",
"DAni2$$2abns5$                #5fmms4$$4smmf5#        $5snns5$            $5snns5$        $4anAD",
"DAni2$$2abns5$                #5fmms4$$4smmf4#        $5snns5$            $5snns5$        $5anAD",
"DAni2$$2abns5$                $5sbba2$$2abns5$        $5snns5$            $5snns5$        $5anAD",
"DAni2$$2anns5$             .o#=8alkr>##>rklp8=#o.     $5snns5$            $5snns5$        $5anAD",
"DAni2$$2anns5$            o#*<60tur5&++&5rut05<&#o    $5snns5$            $5snns5$        $5anAD",
"DAni2$$2abns5$            O=6rut05<&#oo#&<50tur6=O    $5snns5$            $5snns5$        $4anAD",
"DAni2$$2abns5$            #<tkla8=#o.  .o#=8ally1#    $5snns5$            $5snns5$        $4anAD",
"DAni2$$2abns5$            $5sbbs5$        $5sbbs5$    $5snns5$            $5snns5$        $4anAD",
"DAni2$$2abbs4#            $6gMmf5#        #4fmMg6$    $5snns5$            $5snns5$        $4anAD",
"DAni2$$3anbs4@            $6fmmd5#        #5snmf5$    $5snns5$            $5snns5$        $5anAD",
"DAni2$$2anns5$            $5snns5#        $5snns5$    $5snns5$            $5snns5$        $5anAD",
"DAni2$$2anmj0;$@##$$$$#o .$5snns5$        $5snns5$    $5snns5$            $5snns5$        $5anAD",
"DAni2$$2amBva054455565<*@o$5dmmf5$        $5fmmf5$    $5fmmf5$            $5fmmf5$        $5anAD",
"DAni2$$2aMCBvjsssssfgsy5&+$5smMg5$        $6gMMf5$    $6gmmf5$            $5fMMg5$        $4anAD",
"DAni2$$<ibCCBmnbnnnmMbkw:#$3abbs5$        $5sbbs5$    $5sbbs5$            $5sbbs5$        $4anAD",
"DAnp2$#:elnMmnnnnnnmMbke:##>rkly1#        #2ylky2#    #<ylky<#            #1ykky1#        $4anAD",
"DAna3$+%4rassssssssfgsy6*++=6rr7-O        +-7rr7-+    O=7rr7=O            O=7rr7-O        $4anAD",
"DAna4$o+&,455555555555<=#oo#=,<=$o        o$=,,=$o    o$=<,=$o            o$=,,=$o        $5anAD",
"DAna4$. o#$$$$$$$$$$$$#Oo  oO##+o          oO##Oo      o+##+o              oO##+o         $5anAD",
"DAna5$                                                                                    $5anAD",
"DAna5$                                                                                    $5anAD",
"DAna4$                                                                                    $4anAD",
"DAna4$                                                                                    $4anAD",
"DAna4$                                                                                    $4anAD",
"DAna4$                                                                                    $4anAD",
"DAna4$                                                                                    $5anAD",
"DAna4$                                                                                    $5anAD",
"DAna4#                                                                                    $4anAD",
"DAna4#                                                                                    #4anAD",
"DAna3@                                                                                    @2anAD",
"DAna5$                                                                                    $5anAD",
"DAmg9;$@#$$$$$$$$$$$$$$$$$$$$$$$$$$$$$$$$$$$$$$$$$$$$$$$$$$$$$$$$$$$$$$$$$$$$$$$$$$$$$$#@$-9gmAD",
"SANzi95344554444554455554444444455554444554455554444444455554444444444445555444455444444359izNAS",
"SAVnzgaaaaaaaaaaaaaaaaaaaaaaaaaaaaaaaaaaaaaaaaaaaaaaaaaaaaaaaaaaaaaaaaaaaaaaaaaaaaaaaaaaaagznVAS",
"AACVNmnnnnnnnnnnnnnnnnnnnnnnnnnnnnnnnnnnnnnnnnnnnnnnnnnnnnnnnnnnnnnnnnnnnnnnnnnnnnnnnnnnnnmNVCAA",
"AAAAAAAAAAAAAAAAAAAAAAAAAAAAAAAAAAAAAAAAAAAAAAAAAAAAAAAAAAAAAAAAAAAAAAAAAAAAAAAAAAAAAAAAAAAAAAAA",
"AAASSDDDDDDDDDDDDDDDDDDDDDDDDDDDDDDDDDDDDDDDDDDDDDDDDDDDDDDDDDDDDDDDDDDDDDDDDDDDDDDDDDDDDDDSSAAA"
};
