/* XPM */
static char *floor[] = {
/* columns rows colors chars-per-pixel */
"96 96 43 1 ",
"  c #000000",
". c #010000",
"X c #010100",
"o c #020101",
"O c #030201",
"+ c #070403",
"@ c #0D0805",
"# c #110A07",
"$ c #120A07",
"% c #120B07",
"& c #130B07",
"* c #150C08",
"= c #160D08",
"- c #160D09",
"; c #22140D",
": c #291710",
"> c #301B12",
", c #372015",
"< c #3A2116",
"1 c #3B2217",
"2 c #3D2317",
"3 c #3D2318",
"4 c #3E2418",
"5 c #4B2B1D",
"6 c #533020",
"7 c #613825",
"8 c #653B27",
"9 c #663B27",
"0 c #673B28",
"q c #683C28",
"w c #693C28",
"e c #71412B",
"r c #74432D",
"t c #824B32",
"y c #854D33",
"u c #864D33",
"i c #864D34",
"p c #894F35",
"a c #8A4F35",
"s c #8B5035",
"d c #925438",
"f c #98573A",
"g c #99583B",
/* pixels */
"................................................................................................",
"................................................................................................",
"...+@&************************************************************************************&@+...",
"..+&;>,<<<<<<<<<<<<<<<<<<<<<<<<<<<<<<<<<<<<<<<<<<<<<<<<<<<<<<<<<<<<<<<<<<<<<<<<<<<<<<<<<<,>;&+..",
"..@;<67999999999999999999999999999999999999999999999999999999999999999999999999999999999976<;@..",
"..&>6ruspiuuuuuuuuuuuuuuuuuuuuuuuuuuuuuuuuuuuuuuuuuuuuuuuuuuuuuuuuuuuuuuuuuuuuuuuuuuuuipsur6>&..",
"..*,7ufgdpiuuiiiiiiiiiiiiiiiiiiiiiiiiiiiiiiiiiiiiiiiiiiiiiiiiiiiiiiiiiiiiiiiiiiiiiiuuisdgfu7,*..",
"..*<9sgdtew90wwwwwwwwwwwwwwwwwwwwwwwwwwwwwwwwwwwwwwwwwwwwwwwwwwwwwwwwwwwwwwwwwwwwww09wetdgs9<*..",
"..*<9pdt954<<2322222233333332222333322222333222233332222333333332222233333332222332<<459tdp9<*..",
"..*<9ipe5:*&&**********************************************************************&&*:5epi9<*..",
"..*<9uiw4*............................................................................*4wiu9<*..",
"..*<9uu9<&............................................................................&<9uu9<*..",
"..*<9uu0<&............................................................................&<0uu9<*..",
"..*<9uiw2*............................................................................*2wiu9<*..",
"..*<9uiw2*............................................................................*2wiu9<*..",
"..*<9uiw2*............................................................................*2wiu9<*..",
"..*<9uiw3*............................................................................*3wiu9<*..",
"..*<9uiw3*............................................................................*3wiu9<*..",
"..*<9uiw3*............................................................................*3wiu9<*..",
"..*<9uiw3*............................................................................*3wiu9<*..",
"..*<9uiw2*............................................................................*3wiu9<*..",
"..*<9uiw2*............................................................................*3wiu9<*..",
"..*<9uiw2*............................................................................*3wiu9<*..",
"..*<9uiw2*............................................................................*3wiu9<*..",
"..*<9uiw3*............................................................................*2wiu9<*..",
"..*<9uiw3*............................................................................*2wiu9<*..",
"..*<9uiw3*............................................................................*2wiu9<*..",
"..*<9uiw3*............................................................................*2wiu9<*..",
"..*<9uiw3*............................................................................*3wiu9<*..",
"..*<9uiw3*............................................................................*3wiu9<*..",
"..*<9uiw3*............................................................................*3wiu9<*..",
"..*<9uiw3*............................................................................*3wiu9<*..",
"..*<9uiw2*............................................................................*2wiu9<*..",
"..*<9uiw2*............................................................................*2wiu9<*..",
"..*<9uiw2*............................................................................*2wiu9<*..",
"..*<9uiw2*............................................................................*2wiu9<*..",
"..*<9uiw2*............................................................................*3wiu9<*..",
"..*<9uiw3*............................................................................*3wiu9<*..",
"..*<9uiw3*............................................................................*3wiu9<*..",
"..*<9uiw3*............................................................................*3wiu9<*..",
"..*<9uiw3*............................................................................*3wiu9<*..",
"..*<9uiw3*............................................................................*3wiu9<*..",
"..*<9uiw3*............................................................................*3wiu9<*..",
"..*<9uiw3*............................................................................*2wiu9<*..",
"..*<9uiw2*............................................................................*2wiu9<*..",
"..*<9uiw2*............................................................................*2wiu9<*..",
"..*<9uiw2*............................................................................*2wiu9<*..",
"..*<9uiw2*............................................................................*2wiu9<*..",
"..*<9uiw3*............................................................................*3wiu9<*..",
"..*<9uiw3*............................................................................*3wiu9<*..",
"..*<9uiw3*............................................................................*3wiu9<*..",
"..*<9uiw3*............................................................................*3wiu9<*..",
"..*<9uiw2*............................................................................*3wiu9<*..",
"..*<9uiw2*............................................................................*3wiu9<*..",
"..*<9uiw2*............................................................................*3wiu9<*..",
"..*<9uiw2*............................................................................*3wiu9<*..",
"..*<9uiw2*............................................................................*2wiu9<*..",
"..*<9uiw3*............................................................................*2wiu9<*..",
"..*<9uiw3*............................................................................*2wiu9<*..",
"..*<9uiw3*............................................................................*2wiu9<*..",
"..*<9uiw2*............................................................................*3wiu9<*..",
"..*<9uiw2*............................................................................*3wiu9<*..",
"..*<9uiw2*............................................................................*3wiu9<*..",
"..*<9uiw2*............................................................................*3wiu9<*..",
"..*<9uiw3*............................................................................*3wiu9<*..",
"..*<9uiw3*............................................................................*3wiu9<*..",
"..*<9uiw3*............................................................................*3wiu9<*..",
"..*<9uiw3*............................................................................*2wiu9<*..",
"..*<9uiw2*............................................................................*2wiu9<*..",
"..*<9uiw2*............................................................................*2wiu9<*..",
"..*<9uiw2*............................................................................*2wiu9<*..",
"..*<9uiw2*............................................................................*2wiu9<*..",
"..*<9uiw3*............................................................................*3wiu9<*..",
"..*<9uiw3*............................................................................*3wiu9<*..",
"..*<9uiw3*............................................................................*3wiu9<*..",
"..*<9uiw3*............................................................................*3wiu9<*..",
"..*<9uiw3*............................................................................*3wiu9<*..",
"..*<9uiw3*............................................................................*3wiu9<*..",
"..*<9uiw3*............................................................................*3wiu9<*..",
"..*<9uiw3*............................................................................*3wiu9<*..",
"..*<9uiw2*............................................................................*3wiu9<*..",
"..*<9uiw2*............................................................................*2wiu9<*..",
"..*<9uiw2*............................................................................*2wiu9<*..",
"..*<9uu0<&............................................................................&<0uu9<*..",
"..*<9uu9<&............................................................................&<9uu9<*..",
"..*<9uiw4*............................................................................*3wiu9<*..",
"..*<9ipe5:*&&**********************************************************************&&*:5esi9<*..",
"..*<9pdt954<<2332222333333322222333333332222333322223332222233332222333222223333222<<459tdp9<*..",
"..*<9sgdtew90wwwwwwwwwwwwwwwwwwwwwwwwwwwwwwwwwwwwwwwwwwwwwwwwwwwwwwwwwwwwwwwwwwwwww09wetdgs9<*..",
"..*,7ufgdsiuuiiiiiiiiiiiiiiiiiiiiiiiiiiiiiiiiiiiiiiiiiiiiiiiiiiiiiiiiiiiiiiiiiiiiiiuuisdgfu7,*..",
"..&>6ruspiuuuuuuuuuuuuuuuuuuuuuuuuuuuuuuuuuuuuuuuuuuuuuuuuuuuuuuuuuuuuuuuuuuuuuuuuuuuuipsur6>&..",
"..@;<67999999999999999999999999999999999999999999999999999999999999999999999999999999999976<;@..",
"..+&;>,<<<<<<<<<<<<<<<<<<<<<<<<<<<<<<<<<<<<<<<<<<<<<<<<<<<<<<<<<<<<<<<<<<<<<<<<<<<<<<<<<<,>;&+..",
"...+@&************************************************************************************&@+...",
"................................................................................................",
"................................................................................................"
};
