/* XPM */
static char *wall[] = {
/* columns rows colors chars-per-pixel */
"96 96 76 1 ",
"  c #000000",
". c #010000",
"X c #010100",
"o c #020101",
"O c #030201",
"+ c #070403",
"@ c #080403",
"# c #0D0805",
"$ c #100906",
"% c #110A07",
"& c #120A07",
"* c #120B07",
"= c #140B08",
"- c #140C08",
"; c #150C08",
": c #160C08",
"> c #160D08",
", c #22140D",
"< c #24150E",
"1 c #27170F",
"2 c #301B12",
"3 c #311D13",
"4 c #361F15",
"5 c #371F15",
"6 c #372015",
"7 c #392116",
"8 c #3A2116",
"9 c #3B2217",
"0 c #3C2217",
"q c #3F2418",
"w c #46291B",
"e c #533020",
"r c #563121",
"t c #5D3624",
"y c #603725",
"u c #603825",
"i c #613825",
"p c #623926",
"a c #633926",
"s c #643A26",
"d c #653B27",
"f c #663B27",
"g c #6B3D29",
"h c #74432D",
"j c #75432D",
"k c #78452E",
"l c #864D33",
"z c #864D34",
"x c #864E34",
"c c #874E34",
"v c #884E34",
"b c #8A5035",
"n c #8B5035",
"m c #8B5036",
"M c #8C5136",
"N c #8F5237",
"B c #945639",
"V c #99583B",
"C c #9A593B",
"Z c #9B5A3C",
"A c #9C5A3C",
"S c #9D5A3C",
"D c #9D5B3D",
"F c #9E5B3D",
"G c #9F5C3D",
"H c #A05C3D",
"J c #A05C3E",
"K c #A15D3E",
"L c #A25D3E",
"P c #A25E3E",
"I c #A35E3F",
"U c #A45E3F",
"Y c #A45F3F",
"T c #A55F3F",
"R c #A66040",
"E c #A76040",
/* pixels */
"................................................................................................",
"................................................................................................",
"...+#*;;;;;;;;;;;;;;;;;;;;;;;;;;;;;;;;;;;;;;;;;;;;;;;;;;;;;;;;;;;;;;;;;;;;;;;;;;;;;;;;;;;;*#+...",
"..+*,26776666666666666666666666666666666666666666666666666666666666666666666666666666667762,*+..",
"..#,7eysuuuuuuuuuuuuuuuuuuuuuuuuyyyuuuuuuuuuyyuuuuuuuuuuyyyuuuuuuuuuuuuuuuuuuuuuuuuuuuuusye7,#..",
"..*2ehlmmzzzzzzzzzzzzzzzzzzzzzzzzzzzzzzzzzzzzzzzzzzzzzzzzzzzzzzzzzzzzzzzzzzzzzzzzzzzzzzmmlhe2*..",
"..;6ylCKGAZZAAAAAAAAAAAAAAAAAAAAAAAAAAAAAAAAAAAAAAAAAAAAAAAAAAAAAAAAAAAAAAAAAAAAAAAAZZAGKCly6;..",
"..;7smKEEKKKTTEEEEERRREEEEEERRRRRREEEEEEEEERRREEEEEERRRRRREEEEEEEEERRREEEEEERRREEERTKKKEEKms7;..",
"..;7umGETKKKTTEEEEEEEEEEEEEREEEEREEEEEEEEEEEEEEEEEEREEEERREEEEEEEEEEEEEEEEEREEEEEETTKKKTEGmu7;..",
"..;6uzAKKAAAAAAAAAAAAAAAAAAAAAAAAAAAAAAAAAAAAAAAAAAAAAAAAAAAAAAAAAAAAAAAAAAAAAAAAAAAAAAKKAzu6;..",
"..;6uzZKKACBNmzzzzzzzzzzzzzzzzzzzzzzzzzzzzzzzzzzzzzzzzzzzzzzzzzzzzzzzzzzzzzzzzzzzzvNBCAKKZzu6;..",
"..;6uzZKKABzkguuuuuuuuuuuuuuuuuuuuuuuuuuuuuuuuuuuuuuuuuuuuuuuuuuuuuuuuuuuuuuuuuuuugkzBAKKAzu6;..",
"..;6yzZTTANktw74477777777777777777777777777777777777777777777777777777777777777447wtkNATTAzu6;..",
"..;6yzATTAmgw1;**;;;;;;;;;;;;;;;;;;;;;;;;;;;;;;;;;;;;;;;;;;;;;;;;;;;;;;;;;;;;;;**;1wgvATRAzu6;..",
"..;6yzAEEAzu7;....................................................................;7uzAEEAzu6;..",
"..;6yzAEEAzu4*....................................................................*4uzAEEAzu6;..",
"..;6uzAEEAzu6*....................................................................*6uzAEEAzu6;..",
"..;6uzAEEAzu7;....................................................................;7uzAEEAzu6;..",
"..;6uzAEEAzu7;....................................................................;7uzAEEAzu6;..",
"..;6uzAERAzu7;....................................................................;7uzAEEAzu6;..",
"..;6uzAREAzu7;....................................................................;7uzAEEAzu6;..",
"..;6uzAREAzu7;....................................................................;7uzAEEAzy6;..",
"..;6uzAREAzu7;....................................................................;7uzARRAzy6;..",
"..;6uzAREAzu7;....................................................................;7uzARRAzy6;..",
"..;6yzARRAzu7;....................................................................;7uzAERAzu6;..",
"..;6yzARRAzu7;....................................................................;7uzAERAzu6;..",
"..;6yzAEEAzu7;.............+#*;;;;;;;;;;;;;;;;;;;;;;;;;;;;;;;;;;;;*#@.............;7uzAERAzu6;..",
"..;6uzAEEAzu7;............+;1377777777777777777777777777777777777731;@............;7uzAERAzu6;..",
"..;6uzAEEAzu7;............#1qrusssuuuuuuuuuuuuuuuuuuuuuuuuuuuuussurq1#............;7uzAREAzu6;..",
"..;6uzAEEAzu7;............*3rhzNmvzzzzzzzzzzzzzzzzzzzzzzzzzzzzvmNzhr3*............;7uzAEEAzu6;..",
"..;6uzAEEAzu7;............;7uzCKKAAAZZZZAAAAZZAAAZZZAAAAZZAAZZAGKCzu7;............;7uzAEEAzu6;..",
"..;6uzAEEAzu7;............;7sNKEEKKKKKKKKKKKKKKKKKKKKKKKKKKKKKKEEKNs7;............;7uzAEEAzu6;..",
"..;6uzAEEAzu7;............;7smKETKKKKKKKKKKKKKKKKKKKKKKKKKKKKKKTEKms7;............;7uzAERAzu6;..",
"..;6uzAEEAzu7;............;7svAKKAAAAAAAAAAAAAAAAAAAAAAAAAAAAAAKKAvs7;............;7uzAERAzu6;..",
"..;6uzAEEAzu7;............;7uzAKKAAAAAAAAAAAAAAAAAAAAAAAAAAAAAAKKZzu7;............;7uzAERAzu6;..",
"..;6uzAREAzu7;............;7uzAKKAAAAAAAAKKKKKKKKKKKKKKGAAAAAAAKKZzu7;............;7uzAERAzu6;..",
"..;6uzAREAzu7;............;7uzZKKAAAAAAAKKKKKKKKKKKKKKKKAAAAAAAKKZzu7;............;7uzAREAzu6;..",
"..;6uzAREAzu7;............;7uzZKKAAAAAAAAZAAZZZZZZZZAZZAAAAAAAAKKZzu7;............;7uzAEEAzu6;..",
"..;6uzAEEAzu7;............;7uzAKKAAAAACBNmzzzzzzzzzzzzmNBCAAAAAKKZzu7;............;7uzAEEAzu6;..",
"..;6uzAEEAzu7;............;7uzAKKAAAAABzkguuuuuuuuuuusgkzBAAAAAKKZzu7;............;7uzAEEAzu6;..",
"..;6uzAEEAzu7;............;7uzAKKAAGKANktw744777777447wtkNAKGAAKKAvu7;............;7uzAEEAzu6;..",
"..;6uzAEEAzu7;............;7uzZKKAAKKAmgw1;**;;;;;;**;1wgmZKKAAKKZvs7;............;7uzAEEAzu6;..",
"..;6uzAEEAzu7;............;7uzZKKAAKKAzu7;............;7uzZKKAAKKZzu7;............;7uzAERAzu6;..",
"..;6uzAERAzu7;............;7uzZKKAAKKZzu4*............*4uzZKKAAKKZzu7;............;7uzAERAzu6;..",
"..;6uzAREAzu7;............;7uzAKKAAKKZzu4*............*6uzZKKAAKKZzu7;............;7uzAERAzu6;..",
"..;6uzAREAzu7;............;7uzAKKAAKKZzu7;............;7uzZKKAAKKZzu7;............;7uzAEEAzu6;..",
"..;6uzAREAzu7;............;7uzAKKAAKKZzu7;............;7uzZKKAAKKZzu7;............;7uzAEEAzu6;..",
"..;6uzAREAzu7;............;7uzAKKAAKKZzu7;............;7uzZKKAAKKZzu7;............;7uzAEEAzu6;..",
"..;6yzARRAzu7;............;7uzZKKAAKKZzu7;............;7uzZKKAAKKAvu7;............;7uzAEEAzu6;..",
"..;6yzAREAzu7;............;7uzZKKAAKKZzu7;............;7uzZKKAAKKAvs7;............;7uzAEEAzu6;..",
"..;6yzAEEAzu7;............;7uzAKKAAKKAzu7;............;7uzZKKAAKKZzu7;............;7uzAEEAzu6;..",
"..;6uzAEEAzu7;............;7uzAKKAAKKAzu4*............*4uzZKKAAKKZzu7;............;7uzAEEAzu6;..",
"..;6uzAEEAzu7;............;7uzZKKAAKKZzu4*............*4uzZKKAAKKZzu7;............;7uzAEEAzu6;..",
"..;6uzAEEAzu7;............;7uzZKKAAKKZzu7;............;7uzZKKAAKKZzu7;............;7uzAEEAzy6;..",
"..;6uzAEEAzu7;............;7uzZKKAAKKZvgw1;**;;;;;;**;1wgmZKKAAKKZzu7;............;7uzARRAzy6;..",
"..;6uzAEEAzu7;............;7uzZKKAAAGZNktw746777777447wtkNAKAAAKKZzu7;............;7uzARRAzy6;..",
"..;6uzAEEAzu7;............;7uzAKKAAAAABzkguuuuuuuuuuuugkzBAAAAAKKAvu7;............;7uzAERAzu6;..",
"..;6uzAEEAzu7;............;7uzAKKAAAAACBNmzzzzzzzzzzzzmNBCAAAAAKKAvs7;............;7uzAERAzu6;..",
"..;6uzAEEAzu7;............;7uzZKKAAAAAAAAZZZZZZZZZZZZZZZAAAAAAAKKZzu7;............;7uzAERAzu6;..",
"..;6uzAREAzu7;............;7uzZKKAAAAAAAKKKKKKKKKKKKKKKKAAAAAAAKKZzu7;............;7uzAERAzu6;..",
"..;6yzAREAzu7;............;7uzZKKAAAAAAAGKKKKKKKKKKKKKKAAAAAAAAKKZzu7;............;7uzAREAzu6;..",
"..;6yzAREAzu7;............;7uzZKKAAAAAAAAAAAAAAAAAAAAAAAAAAAAAAKKZzu7;............;7uzAEEAzu6;..",
"..;6uzAEEAzu7;............;7uvAKKAAAAAAAAAAAAAAAAAAAAAAAAAAAAAAKKAzu7;............;7uzAEEAzu6;..",
"..;6uzAEEAzu7;............;7smGETKKKKKKKKKKKKKKKKKKKKKKKKKKKKKKTEGms7;............;7uzAEEAzu6;..",
"..;6uzAEEAzu7;............;7sNKEEKKKKKKKKKKKKKKKKKKKKKKKKKKKKKKEEKNs7;............;7uzAEEAzy6;..",
"..;6uzAEEAzu7;............;7uzCKGAZZAAZZAAAAZZZAAAZZAAAAZZZZAAAKKCzu7;............;7uzAEEAzy6;..",
"..;6uzAEEAzu7;............*3rhzNmvzzzzzzzzzzzzzzzzzzzzzzzzzzzzvmNzhr3*............;7uzAEEAzu6;..",
"..;6uzAERAzu7;............#1qrussuuuuuuuuuuuuuuuuuuuuuuuuuuuuussfurq1#............;7uzAEEAzu6;..",
"..;6uzAREAzu7;............@;1377777777777777777777777777777777777731;@............;7uzAEEAzu6;..",
"..;6uzAREAzu7;.............@#*;;;;;;;;;;;;;;;;;;;;;;;;;;;;;;;;;;;;*#@.............;7uzAEEAzu6;..",
"..;6uzAREAzu7;....................................................................;7uzAEEAzu6;..",
"..;6uzAREAzu7;....................................................................;7uzAEEAzu6;..",
"..;6yzARRAzu7;....................................................................;7uzAEEAzy6;..",
"..;6yzARRAzu7;....................................................................;7uzAERAzy6;..",
"..;6yzAEEAzu7;....................................................................;7uzAERAzy6;..",
"..;6uzAEEAzu7;....................................................................;7uzAERAzy6;..",
"..;6uzAEEAzu7;....................................................................;7uzAREAzu6;..",
"..;6uzAEEAzu7;....................................................................;7uzAREAzu6;..",
"..;6uzAEEAzu7;....................................................................;7uzAEEAzu6;..",
"..;6uzAEEAzu6*....................................................................*4uzAEEAzu6;..",
"..;6uzAEEAzu4*....................................................................*4uzAEEAzy6;..",
"..;6uzAEEAzu7;....................................................................;7uzAEEAzy6;..",
"..;6uzARTAvgw1;**;;;;;;;;;;;;;;;;;;;;;;;;;;;;;;;;;;;;;;;;;;;;;;;;;;;;;;;;;;;;;;**;1wgmATRAzu6;..",
"..;6uzATTANktw74477777777777777777777777777777777777777777777777777777777777777447wtkNATTAzu6;..",
"..;6uzAKKABzkguuuuuuuuuuuuuuuuuuuuuuuuuuuuuuuuuuuuuuuuuuuuuuuuuuuuuuuuuuuuuuuuuuuugkzBAKKZzu6;..",
"..;6uzZKKACBNvzzzzzzzzzzzzzzzzzzzzzzzzzzzzzzzzzzzzzzzzzzzzzzzzzzzzzzzzzzzzzzzzzzzzvNBCAKKZzu6;..",
"..;6uzAKKAAAAAAAAAAAAAAAAAAAAAAAAAAAAAAAAAAAAAAAAAAAAAAAAAAAAAAAAAAAAAAAAAAAAAAAAAAAAAAKKAzu6;..",
"..;7umGETKKKTTEEEEEEREEEEEEEEEEEEEEEEERREEEEREEEEEEEEEEEEEEEEEEREEEEEEEEEEEEEEEEEETTKKKTEGmu7;..",
"..;7smKEEKKKTREEERRREEEEEERRREEEEEEEEERRRRRREEEEEERRREEEEEEEEERREERRREEEEEEEEERREERTKKKEEKms7;..",
"..;6ylCKGAZZAAAAAAAAAAAAAAAAAAAAAAAAAAAAAAAAAAAAAAAAAAAAAAAAAAAAAAAAAAAAAAAAAAAAAAAAZZAGKCly6;..",
"..*2ehlmmzzzzzzzzzzzzzzzzzzzzzzzzzzzzzzzzzzzzzzzzzzzzzzzzzzzzzzzzzzzzzzzzzzzzzzzzzzzzzzmmlhe2*..",
"..#,7eysuuuuuuuuuuuuuuuuuuuuuuuuuuuuuyyyuuuuuuuuuuyyuuuuuuuuuyyyuuyyuuuuuuuuuyyyuuuuuuuusye0,#..",
"..+*,26776666666666666666666666666666666666666666666666666666666666666666666666666666667762,*+..",
"...+#*;;;;;;;;;;;;;;;;;;;;;;;;;;;;;;;;;;;;;;;;;;;;;;;;;;;;;;;;;;;;;;;;;;;;;;;;;;;;;;;;;;;;*#+...",
"................................................................................................",
"................................................................................................"
};
